<svg width="300" height="30" viewBox="0 0 300 30" fill="none" xmlns="http://www.w3.org/2000/svg">
<path d="M0.0325472 29.9998C5.37898 27.9061 38.5369 16.8895 42.302 14.9027C44.4329 13.7782 43.0323 8.25096 41.3943 6.13553C39.7564 4.0201 37.458 2.5053 34.8601 1.829C32.2622 1.1527 29.5119 1.3532 27.041 2.39901C24.5702 3.44483 22.5187 5.27673 21.2088 7.60706C20.4267 7.30977 19.6003 7.14376 18.7635 7.11582C17.7507 7.11558 16.7478 7.31365 15.8121 7.69872C14.8764 8.08379 14.0261 8.64831 13.3099 9.36006C12.5937 10.0718 12.0255 10.9168 11.6379 11.8468C11.2503 12.7768 11.0508 13.7737 11.0508 14.7803C11.0508 14.8242 11.0747 14.8607 11.0765 14.9027C9.10794 15.0449 7.27213 15.9424 5.9571 17.4055C4.64207 18.8685 3.95088 20.7825 4.0296 22.7429C4.10833 24.7032 4.95081 26.5564 6.37897 27.9106C7.80714 29.2648 9.70908 30.014 11.6828 29.9998H42.302C44.3324 29.9998 46.2797 29.1981 47.7154 27.771C49.1511 26.3439 49.9577 24.4083 49.9577 22.3901C49.9577 20.5781 47.7154 18.2858 45.289 18.1106C40.4475 17.7608 6.2826 28.8782 0.0325472 29.9998Z" fill="#B366FF" fill-opacity="0.25"/>
<path d="M0.0325472 29.9998C5.37898 27.9061 37.6292 16.0595 41.3943 14.0727C43.5252 12.9483 43.0323 8.25096 41.3943 6.13553C39.7564 4.0201 37.458 2.5053 34.8601 1.829C32.2622 1.1527 29.5119 1.3532 27.041 2.39901C24.5702 3.44483 22.5187 5.27673 21.2088 7.60706C20.4267 7.30977 19.6003 7.14376 18.7635 7.11582C17.7507 7.11558 16.7478 7.31365 15.8121 7.69872C14.8764 8.08379 14.0261 8.64831 13.3099 9.36006C12.5937 10.0718 12.0255 10.9168 11.6379 11.8468C11.2503 12.7768 11.0508 13.7737 11.0508 14.7803C11.0508 14.8242 11.0747 14.8607 11.0765 14.9027C9.10794 15.0449 7.27213 15.9424 5.9571 17.4055C4.64207 18.8685 3.95088 20.7825 4.0296 22.7429C4.10833 24.7032 4.95081 26.5564 6.37897 27.9106C7.80714 29.2648 9.70908 30.014 11.6828 29.9998H42.302C44.3324 29.9998 46.2797 29.1981 47.7154 27.771C49.1511 26.3439 49.9577 24.4083 49.9577 22.3901C49.9577 20.5781 47.7154 16.6413 44.4072 16.6413C39.2586 16.6413 6.2826 28.8782 0.0325472 29.9998Z" fill="#B366FF" fill-opacity="0.25"/>
<path d="M0 28.5639C5.34643 26.4702 38.4293 15.6116 41.7012 12.8971C43.8225 11.1371 42.9997 6.81502 41.3618 4.69959C39.7238 2.58416 37.4255 1.06936 34.8276 0.393063C32.2296 -0.283238 29.4793 -0.0827391 27.0085 0.963077C24.5376 2.00889 22.4862 3.84079 21.1763 6.17112C20.3942 5.87384 19.5678 5.70783 18.7309 5.67988C17.7182 5.67964 16.7153 5.87771 15.7795 6.26278C14.8438 6.64785 13.9936 7.21238 13.2774 7.92412C12.5611 8.63586 11.993 9.48087 11.6054 10.4109C11.2178 11.3409 11.0183 12.3377 11.0183 13.3444C11.0183 13.3882 11.0421 13.4248 11.044 13.4668C9.07539 13.609 7.23958 14.5065 5.92455 15.9695C4.60953 17.4326 3.91833 19.3466 3.99706 21.3069C4.07578 23.2673 4.91826 25.1204 6.34643 26.4746C7.77459 27.8289 9.67653 28.5781 11.6503 28.5639H42.2694C44.2998 28.5639 46.2471 27.7621 47.6828 26.335C49.1186 24.9079 49.9251 22.9724 49.9251 20.9541C49.9251 19.1422 47.6828 15.6958 45.1884 15.0611C41.2048 14.0474 6.25006 27.4422 0 28.5639Z" fill="#0B0A0B"/>
<path d="M68.0702 7.29467C67.0287 7.29467 66.0963 7.48179 65.273 7.85603C64.4597 8.23026 63.7703 8.77192 63.2049 9.481C62.6395 10.1802 62.208 11.0321 61.9104 12.0367C61.6129 13.0313 61.4641 14.154 61.4641 15.4048C61.4641 17.079 61.7021 18.5218 62.1782 19.7331C62.6544 20.9346 63.3785 21.8604 64.3505 22.5104C65.3226 23.1505 66.5526 23.4706 68.0405 23.4706C68.963 23.4706 69.8606 23.382 70.7335 23.2047C71.6064 23.0274 72.5091 22.7861 73.4415 22.4808V25.4944C72.5586 25.8391 71.6659 26.0902 70.7633 26.2478C69.8606 26.4054 68.8191 26.4842 67.6387 26.4842C65.4169 26.4842 63.5719 26.0262 62.1039 25.1103C60.6457 24.1944 59.5546 22.9043 58.8305 21.2399C58.1164 19.5756 57.7593 17.6256 57.7593 15.39C57.7593 13.7552 57.9874 12.2582 58.4437 10.8992C58.9 9.54009 59.5646 8.36814 60.4374 7.38331C61.3103 6.38862 62.3866 5.62538 63.6661 5.09356C64.9556 4.5519 66.4286 4.28108 68.0851 4.28108C69.1762 4.28108 70.2475 4.40418 71.2989 4.65039C72.3603 4.88675 73.3423 5.22652 74.2449 5.66969L72.9951 8.59465C72.2412 8.24011 71.4527 7.93481 70.6294 7.67876C69.8061 7.4227 68.953 7.29467 68.0702 7.29467Z" fill="black"/>
<path d="M81.2677 26.1887H77.7563V3.20268H81.2677V26.1887Z" fill="black"/>
<path d="M100.848 17.9752C100.848 19.3343 100.67 20.5407 100.312 21.5945C99.9554 22.6482 99.4346 23.5395 98.7502 24.2683C98.0658 24.9872 97.2425 25.5387 96.2803 25.9228C95.3182 26.2971 94.232 26.4842 93.0219 26.4842C91.8911 26.4842 90.8545 26.2971 89.9122 25.9228C88.9699 25.5387 88.1516 24.9872 87.4572 24.2683C86.7728 23.5395 86.2421 22.6482 85.8652 21.5945C85.4883 20.5407 85.2998 19.3343 85.2998 17.9752C85.2998 16.173 85.6123 14.6465 86.2372 13.3957C86.872 12.1351 87.7746 11.1749 88.9451 10.5151C90.1156 9.85524 91.5092 9.52532 93.126 9.52532C94.6437 9.52532 95.9827 9.85524 97.1433 10.5151C98.3038 11.1749 99.2114 12.1351 99.8661 13.3957C100.521 14.6563 100.848 16.1828 100.848 17.9752ZM88.9005 17.9752C88.9005 19.1669 89.0443 20.1862 89.3319 21.0331C89.6295 21.8801 90.0858 22.5301 90.7008 22.9831C91.3158 23.4263 92.1093 23.6479 93.0814 23.6479C94.0535 23.6479 94.847 23.4263 95.462 22.9831C96.077 22.5301 96.5283 21.8801 96.816 21.0331C97.1036 20.1862 97.2474 19.1669 97.2474 17.9752C97.2474 16.7836 97.1036 15.7741 96.816 14.9468C96.5283 14.1097 96.077 13.4745 95.462 13.0412C94.847 12.598 94.0485 12.3764 93.0665 12.3764C91.6183 12.3764 90.5619 12.859 89.8973 13.8241C89.2328 14.7893 88.9005 16.173 88.9005 17.9752Z" fill="black"/>
<path d="M119.223 9.83554V26.1887H116.471L115.995 23.9876H115.801C115.454 24.549 115.013 25.0168 114.477 25.391C113.941 25.7554 113.346 26.0262 112.692 26.2035C112.037 26.3906 111.348 26.4842 110.623 26.4842C109.384 26.4842 108.322 26.2774 107.439 25.8637C106.566 25.4403 105.897 24.7903 105.431 23.9138C104.965 23.0373 104.731 21.9047 104.731 20.5161V9.83554H108.243V19.8661C108.243 21.1365 108.501 22.0869 109.017 22.7172C109.542 23.3475 110.356 23.6626 111.457 23.6626C112.518 23.6626 113.361 23.446 113.986 23.0126C114.611 22.5793 115.052 21.9392 115.31 21.0922C115.578 20.2453 115.712 19.2063 115.712 17.9752V9.83554H119.223Z" fill="black"/>
<path d="M129.772 26.4842C127.808 26.4842 126.231 25.7751 125.041 24.3569C123.861 22.9289 123.27 20.8263 123.27 18.0491C123.27 15.2423 123.87 13.12 125.071 11.6821C126.281 10.2443 127.873 9.52532 129.847 9.52532C130.68 9.52532 131.409 9.63858 132.034 9.86509C132.659 10.0818 133.194 10.3772 133.641 10.7514C134.097 11.1257 134.484 11.5442 134.801 12.0071H134.965C134.915 11.7018 134.856 11.2636 134.786 10.6924C134.727 10.1113 134.697 9.57456 134.697 9.08215V3.20268H138.209V26.1887H135.471L134.846 23.9581H134.697C134.4 24.4308 134.023 24.8592 133.566 25.2433C133.12 25.6175 132.584 25.9179 131.96 26.1444C131.345 26.3709 130.615 26.4842 129.772 26.4842ZM130.754 23.6626C132.252 23.6626 133.309 23.2342 133.924 22.3774C134.539 21.5206 134.856 20.2354 134.876 18.5218V18.0638C134.876 16.232 134.578 14.8287 133.983 13.8537C133.388 12.8688 132.302 12.3764 130.725 12.3764C129.465 12.3764 128.503 12.8836 127.838 13.898C127.183 14.9025 126.856 16.3059 126.856 18.1082C126.856 19.9104 127.183 21.2892 127.838 22.2445C128.503 23.1899 129.475 23.6626 130.754 23.6626Z" fill="black"/>
<path d="M164.053 20.3093C164.053 21.5896 163.736 22.6926 163.101 23.6183C162.476 24.5441 161.573 25.2531 160.393 25.7456C159.222 26.238 157.824 26.4842 156.197 26.4842C155.403 26.4842 154.645 26.4399 153.921 26.3512C153.196 26.2626 152.512 26.1346 151.867 25.9671C151.232 25.7899 150.652 25.5781 150.126 25.3319V21.9933C151.009 22.3774 151.996 22.727 153.087 23.0422C154.178 23.3475 155.289 23.5001 156.42 23.5001C157.343 23.5001 158.106 23.382 158.712 23.1456C159.326 22.8994 159.783 22.5547 160.08 22.1115C160.378 21.6585 160.527 21.1316 160.527 20.5309C160.527 19.8907 160.353 19.3491 160.006 18.9059C159.659 18.4627 159.133 18.0589 158.429 17.6945C157.734 17.3203 156.862 16.9214 155.81 16.498C155.096 16.2124 154.412 15.8874 153.757 15.523C153.112 15.1586 152.537 14.7302 152.031 14.2378C151.525 13.7453 151.123 13.1643 150.826 12.4946C150.538 11.8151 150.394 11.0173 150.394 10.1015C150.394 8.88025 150.687 7.83633 151.272 6.96967C151.867 6.10302 152.7 5.43826 153.772 4.97538C154.853 4.51251 156.113 4.28108 157.551 4.28108C158.692 4.28108 159.763 4.39926 160.765 4.63562C161.777 4.87198 162.768 5.20682 163.741 5.64015L162.61 8.49125C161.717 8.12686 160.849 7.83633 160.006 7.61967C159.173 7.403 158.32 7.29467 157.447 7.29467C156.693 7.29467 156.053 7.40793 155.527 7.63444C155.002 7.86095 154.6 8.18102 154.322 8.59465C154.054 8.99844 153.921 9.481 153.921 10.0424C153.921 10.6727 154.074 11.2045 154.382 11.6378C154.699 12.0613 155.185 12.4503 155.84 12.8048C156.504 13.1594 157.358 13.5533 158.399 13.9866C159.599 14.479 160.616 14.9961 161.449 15.5377C162.292 16.0794 162.937 16.7294 163.383 17.4877C163.83 18.2362 164.053 19.1767 164.053 20.3093Z" fill="black"/>
<path d="M171.403 26.1887H167.892V3.20268H171.403V26.1887Z" fill="black"/>
<path d="M179.899 9.83554V26.1887H176.402V9.83554H179.899ZM178.173 3.57199C178.709 3.57199 179.17 3.71479 179.557 4.0004C179.953 4.286 180.152 4.77842 180.152 5.47765C180.152 6.16703 179.953 6.65945 179.557 6.9549C179.17 7.2405 178.709 7.38331 178.173 7.38331C177.617 7.38331 177.146 7.2405 176.759 6.9549C176.382 6.65945 176.194 6.16703 176.194 5.47765C176.194 4.77842 176.382 4.286 176.759 4.0004C177.146 3.71479 177.617 3.57199 178.173 3.57199Z" fill="black"/>
<path d="M191.549 26.4842C189.992 26.4842 188.643 26.1838 187.502 25.5831C186.361 24.9823 185.483 24.0615 184.868 22.8206C184.253 21.5797 183.946 20.004 183.946 18.0934C183.946 16.104 184.283 14.479 184.958 13.2185C185.632 11.9579 186.565 11.0272 187.755 10.4264C188.955 9.8257 190.329 9.52532 191.876 9.52532C192.858 9.52532 193.746 9.62381 194.54 9.82077C195.343 10.0079 196.022 10.2393 196.578 10.5151L195.536 13.2923C194.931 13.0461 194.311 12.8393 193.677 12.6719C193.042 12.5044 192.432 12.4207 191.846 12.4207C190.884 12.4207 190.081 12.6325 189.436 13.056C188.801 13.4794 188.325 14.1097 188.008 14.9468C187.7 15.7839 187.547 16.8229 187.547 18.0638C187.547 19.2653 187.705 20.2797 188.023 21.107C188.34 21.9244 188.811 22.5448 189.436 22.9683C190.061 23.382 190.83 23.5888 191.742 23.5888C192.645 23.5888 193.453 23.4804 194.168 23.2638C194.882 23.0471 195.556 22.7664 196.191 22.4217V25.4353C195.566 25.7899 194.897 26.0509 194.182 26.2183C193.468 26.3955 192.59 26.4842 191.549 26.4842Z" fill="black"/>
<path d="M206.621 9.52532C208.089 9.52532 209.349 9.8257 210.4 10.4264C211.452 11.0272 212.26 11.8791 212.825 12.9821C213.391 14.0851 213.674 15.4048 213.674 16.9411V18.8025H202.678C202.718 20.3881 203.144 21.6092 203.958 22.4661C204.781 23.3229 205.932 23.7513 207.41 23.7513C208.461 23.7513 209.403 23.6528 210.237 23.4558C211.08 23.249 211.948 22.9486 212.84 22.5547V25.3762C212.017 25.7603 211.179 26.041 210.326 26.2183C209.473 26.3955 208.451 26.4842 207.261 26.4842C205.644 26.4842 204.221 26.174 202.991 25.5535C201.771 24.9232 200.813 23.9876 200.119 22.7467C199.435 21.5058 199.092 19.9646 199.092 18.1229C199.092 16.2911 199.405 14.7351 200.03 13.4548C200.655 12.1745 201.533 11.1995 202.663 10.5299C203.794 9.86017 205.113 9.52532 206.621 9.52532ZM206.621 12.1401C205.52 12.1401 204.627 12.4946 203.943 13.2037C203.268 13.9128 202.872 14.9518 202.753 16.3207H210.251C210.242 15.5033 210.103 14.7794 209.835 14.1491C209.577 13.5188 209.18 13.0264 208.645 12.6719C208.119 12.3173 207.444 12.1401 206.621 12.1401Z" fill="black"/>
<path d="M225.963 9.52532C226.241 9.52532 226.544 9.54009 226.871 9.56964C227.198 9.59918 227.481 9.63858 227.719 9.68782L227.392 12.9378C227.183 12.8787 226.926 12.8344 226.618 12.8048C226.32 12.7753 226.053 12.7605 225.815 12.7605C225.19 12.7605 224.595 12.8639 224.029 13.0707C223.464 13.2677 222.963 13.573 222.526 13.9866C222.09 14.3904 221.748 14.8976 221.5 15.5082C221.252 16.1188 221.128 16.8279 221.128 17.6354V26.1887H217.616V9.83554H220.354L220.83 12.7162H220.994C221.321 12.1351 221.728 11.6033 222.214 11.1208C222.7 10.6382 223.255 10.2541 223.88 9.9685C224.515 9.67305 225.21 9.52532 225.963 9.52532Z" fill="black"/>
<path d="M237.599 26.1887L242.211 4.5913H246.898C249.616 4.5913 251.743 5.3053 253.281 6.73331C254.818 8.16133 255.587 10.3477 255.587 13.2923C255.587 14.6711 255.408 16.0006 255.051 17.2809C254.704 18.5612 254.178 19.743 253.474 20.8263C252.78 21.9096 251.902 22.8501 250.841 23.6479C249.789 24.4456 248.559 25.0709 247.151 25.524C245.742 25.9671 244.155 26.1887 242.39 26.1887H237.599ZM239.414 24.8444H242.464C243.982 24.8444 245.35 24.6475 246.57 24.2535C247.791 23.8596 248.862 23.3032 249.784 22.5842C250.717 21.8653 251.49 21.0233 252.105 20.0581C252.73 19.093 253.201 18.0343 253.519 16.882C253.836 15.7298 253.995 14.5283 253.995 13.2775C253.995 10.7367 253.34 8.88025 252.031 7.7083C250.732 6.5265 248.916 5.9356 246.585 5.9356H243.461L239.414 24.8444Z" fill="#B366FF"/>
<path d="M264.023 26.4546C262.773 26.4546 261.722 26.1986 260.869 25.6865C260.016 25.1744 259.371 24.4554 258.935 23.5297C258.508 22.6039 258.295 21.5305 258.295 20.3093C258.295 19.1373 258.419 18.0294 258.667 16.9854C258.925 15.9415 259.292 14.9862 259.768 14.1196C260.254 13.2431 260.834 12.4897 261.509 11.8594C262.193 11.2192 262.962 10.7268 263.815 10.3821C264.678 10.0276 265.605 9.85032 266.597 9.85032C267.827 9.85032 268.864 10.1113 269.707 10.6333C270.55 11.1552 271.19 11.8791 271.626 12.8048C272.073 13.7207 272.296 14.7843 272.296 15.9957C272.296 17.079 272.177 18.1328 271.939 19.157C271.711 20.1812 271.368 21.1365 270.912 22.0229C270.456 22.9092 269.89 23.6823 269.216 24.3422C268.551 25.002 267.783 25.519 266.91 25.8933C266.047 26.2675 265.085 26.4546 264.023 26.4546ZM264.157 25.1694C264.951 25.1694 265.685 25.0217 266.359 24.7263C267.044 24.421 267.654 23.9925 268.189 23.441C268.735 22.8895 269.196 22.2297 269.573 21.4615C269.96 20.6934 270.252 19.8365 270.451 18.8911C270.649 17.9457 270.748 16.9362 270.748 15.8627C270.748 14.9961 270.6 14.2082 270.302 13.4991C270.004 12.7802 269.548 12.209 268.933 11.7855C268.328 11.362 267.545 11.1503 266.582 11.1503C265.789 11.1503 265.05 11.2931 264.365 11.5787C263.681 11.8643 263.056 12.2779 262.491 12.8196C261.935 13.3613 261.459 14.0112 261.062 14.7696C260.666 15.5279 260.358 16.3798 260.14 17.3252C259.932 18.2608 259.827 19.2703 259.827 20.3536C259.827 21.8407 260.189 23.0176 260.914 23.8842C261.648 24.741 262.729 25.1694 264.157 25.1694Z" fill="#B366FF"/>
<path d="M281.416 26.4842C280.177 26.4842 279.115 26.233 278.232 25.7308C277.35 25.2187 276.67 24.5047 276.194 23.5888C275.728 22.6729 275.495 21.5994 275.495 20.3684C275.495 19.2456 275.614 18.1623 275.852 17.1184C276.1 16.0745 276.462 15.1093 276.938 14.223C277.414 13.3366 277.994 12.5685 278.679 11.9185C279.373 11.2586 280.167 10.7465 281.059 10.3821C281.962 10.0079 282.949 9.82077 284.02 9.82077C284.715 9.82077 285.399 9.88479 286.074 10.0128C286.758 10.1408 287.358 10.323 287.874 10.5594L287.442 11.8742C286.976 11.6476 286.436 11.4704 285.821 11.3423C285.216 11.2045 284.615 11.1355 284.02 11.1355C282.959 11.1355 281.997 11.3768 281.134 11.8594C280.271 12.3321 279.532 12.9919 278.917 13.8389C278.312 14.6859 277.846 15.6658 277.518 16.7786C277.191 17.8816 277.027 19.0634 277.027 20.324C277.027 21.2596 277.196 22.0967 277.533 22.8354C277.88 23.5641 278.391 24.1403 279.066 24.5638C279.74 24.9774 280.563 25.1842 281.535 25.1842C282.26 25.1842 282.934 25.1005 283.559 24.9331C284.184 24.7558 284.809 24.5244 285.434 24.2388V25.5831C284.918 25.8391 284.328 26.0509 283.663 26.2183C282.999 26.3955 282.25 26.4842 281.416 26.4842Z" fill="#B366FF"/>
<path d="M292.59 26.4842C291.559 26.4842 290.656 26.3709 289.882 26.1444C289.119 25.9179 288.489 25.6717 287.993 25.4058V23.9138C288.558 24.2486 289.243 24.549 290.046 24.8149C290.85 25.0709 291.693 25.199 292.576 25.199C293.577 25.199 294.391 25.0611 295.016 24.7853C295.641 24.5096 296.102 24.1304 296.399 23.6479C296.707 23.1554 296.861 22.5892 296.861 21.949C296.861 21.3778 296.727 20.9002 296.459 20.5161C296.191 20.132 295.814 19.7873 295.328 19.482C294.852 19.1669 294.301 18.8369 293.677 18.4922C292.972 18.0983 292.342 17.7093 291.787 17.3252C291.231 16.9411 290.795 16.5029 290.478 16.0105C290.16 15.5082 290.001 14.8976 290.001 14.1787C290.001 13.2135 290.235 12.4109 290.701 11.7707C291.177 11.1306 291.822 10.648 292.635 10.323C293.448 9.98819 294.366 9.82077 295.388 9.82077C296.35 9.82077 297.218 9.91926 297.991 10.1162C298.765 10.3132 299.435 10.5446 300 10.8105L299.509 12.081C298.993 11.8249 298.378 11.6033 297.664 11.4162C296.96 11.2291 296.196 11.1355 295.373 11.1355C294.252 11.1355 293.324 11.3768 292.59 11.8594C291.866 12.342 291.504 13.0855 291.504 14.09C291.504 14.5923 291.628 15.0256 291.876 15.39C292.134 15.7446 292.496 16.0696 292.962 16.365C293.438 16.6605 293.994 16.9805 294.629 17.3252C295.293 17.6995 295.913 18.0786 296.489 18.4627C297.064 18.8468 297.525 19.3047 297.872 19.8365C298.229 20.3585 298.408 21.0282 298.408 21.8456C298.408 22.7615 298.19 23.5691 297.753 24.2683C297.327 24.9675 296.677 25.5141 295.804 25.9081C294.941 26.2921 293.87 26.4842 292.59 26.4842Z" fill="#B366FF"/>
</svg>
