<svg width="859" height="495" viewBox="0 0 859 495" fill="none" xmlns="http://www.w3.org/2000/svg">
<path d="M0 494.997C91.9894 458.714 661.205 270.541 717.5 223.5C754 193 739.843 118.101 711.661 81.4414C683.479 44.7821 643.934 18.5315 599.235 6.81156C554.535 -4.90837 507.214 -1.43383 464.701 16.6896C422.188 34.8131 386.892 66.5589 364.354 106.942C350.897 101.79 336.679 98.9136 322.28 98.4293C304.854 98.4251 287.599 101.858 271.499 108.531C255.399 115.204 240.77 124.987 228.447 137.321C216.124 149.655 206.349 164.298 199.679 180.415C193.01 196.532 189.577 213.806 189.577 231.251C189.577 232.011 189.988 232.644 190.02 233.372C156.149 235.837 124.562 251.39 101.936 276.744C79.3104 302.098 67.4179 335.266 68.7724 369.238C70.1269 403.21 84.6224 435.324 109.195 458.792C133.768 482.259 166.492 495.242 200.452 494.997H727.278C762.213 494.997 795.717 481.103 820.419 456.372C845.122 431.641 859 398.099 859 363.124C859 331.724 820.419 276.744 770 266.5C688.151 249.871 107.537 475.559 0 494.997Z" fill="white"/>
</svg>
