<svg width="300" height="30" viewBox="0 0 300 30" fill="none" xmlns="http://www.w3.org/2000/svg">
<path d="M0.0325472 29.9998C5.37898 27.9061 38.5369 16.8895 42.302 14.9027C44.4329 13.7782 43.0323 8.25096 41.3943 6.13553C39.7564 4.0201 37.458 2.5053 34.8601 1.829C32.2622 1.1527 29.5119 1.3532 27.041 2.39902C24.5702 3.44483 22.5187 5.27673 21.2088 7.60706C20.4267 7.30978 19.6003 7.14376 18.7635 7.11582C17.7507 7.11558 16.7478 7.31365 15.8121 7.69872C14.8764 8.08379 14.0261 8.64832 13.3099 9.36006C12.5937 10.0718 12.0255 10.9168 11.6379 11.8468C11.2503 12.7768 11.0508 13.7737 11.0508 14.7803C11.0508 14.8242 11.0747 14.8607 11.0765 14.9027C9.10794 15.0449 7.27213 15.9424 5.9571 17.4055C4.64207 18.8685 3.95088 20.7825 4.0296 22.7429C4.10833 24.7032 4.95081 26.5564 6.37897 27.9106C7.80714 29.2648 9.70908 30.014 11.6828 29.9998H42.302C44.3324 29.9998 46.2797 29.1981 47.7154 27.771C49.1511 26.3439 49.9577 24.4083 49.9577 22.3901C49.9577 20.5781 47.7154 18.2858 45.289 18.1106C40.4475 17.7608 6.2826 28.8782 0.0325472 29.9998Z" fill="#B366FF"/>
<path d="M0.0325472 29.9998C5.37898 27.9061 37.6292 16.0595 41.3943 14.0727C43.5252 12.9483 43.0323 8.25096 41.3943 6.13553C39.7564 4.0201 37.458 2.5053 34.8601 1.829C32.2622 1.1527 29.5119 1.3532 27.041 2.39902C24.5702 3.44483 22.5187 5.27673 21.2088 7.60706C20.4267 7.30978 19.6003 7.14376 18.7635 7.11582C17.7507 7.11558 16.7478 7.31365 15.8121 7.69872C14.8764 8.08379 14.0261 8.64832 13.3099 9.36006C12.5937 10.0718 12.0255 10.9168 11.6379 11.8468C11.2503 12.7768 11.0508 13.7737 11.0508 14.7803C11.0508 14.8242 11.0747 14.8607 11.0765 14.9027C9.10794 15.0449 7.27213 15.9424 5.9571 17.4055C4.64207 18.8685 3.95088 20.7825 4.0296 22.7429C4.10833 24.7032 4.95081 26.5564 6.37897 27.9106C7.80714 29.2648 9.70908 30.014 11.6828 29.9998H42.302C44.3324 29.9998 46.2797 29.1981 47.7154 27.771C49.1511 26.3439 49.9577 24.4083 49.9577 22.3901C49.9577 20.5781 47.7154 16.6413 44.4072 16.6413C39.2586 16.6413 6.2826 28.8782 0.0325472 29.9998Z" fill="#B366FF"/>
<path d="M0 28.5639C5.34643 26.4702 38.4293 15.6116 41.7012 12.8971C43.8225 11.1371 42.9997 6.81502 41.3618 4.69959C39.7238 2.58416 37.4255 1.06936 34.8276 0.393063C32.2296 -0.283238 29.4793 -0.0827391 27.0085 0.963077C24.5376 2.00889 22.4862 3.84079 21.1763 6.17112C20.3942 5.87384 19.5678 5.70783 18.7309 5.67988C17.7182 5.67964 16.7153 5.87771 15.7795 6.26278C14.8438 6.64785 13.9936 7.21238 13.2774 7.92412C12.5611 8.63586 11.993 9.48087 11.6054 10.4109C11.2178 11.3409 11.0183 12.3377 11.0183 13.3444C11.0183 13.3882 11.0421 13.4248 11.044 13.4668C9.07539 13.609 7.23958 14.5065 5.92455 15.9695C4.60953 17.4326 3.91833 19.3466 3.99706 21.3069C4.07578 23.2673 4.91826 25.1204 6.34643 26.4746C7.77459 27.8289 9.67654 28.578 11.6503 28.5639H42.2694C44.2998 28.5639 46.2471 27.7621 47.6828 26.335C49.1186 24.9079 49.9251 22.9724 49.9251 20.9541C49.9251 19.1422 47.6828 15.9695 44.7525 15.3784C39.9954 14.4188 6.25006 27.4422 0 28.5639Z" fill="white"/>
<path d="M68.0702 7.29471C67.0287 7.29471 66.0963 7.48183 65.273 7.85607C64.4597 8.2303 63.7703 8.77196 63.2049 9.48104C62.6395 10.1803 62.208 11.0322 61.9104 12.0367C61.6129 13.0314 61.4641 14.1541 61.4641 15.4048C61.4641 17.079 61.7021 18.5218 62.1782 19.7332C62.6544 20.9347 63.3785 21.8604 64.3505 22.5104C65.3226 23.1506 66.5526 23.4706 68.0405 23.4706C68.963 23.4706 69.8606 23.382 70.7335 23.2047C71.6064 23.0275 72.5091 22.7862 73.4415 22.4809V25.4945C72.5586 25.8392 71.6659 26.0903 70.7633 26.2479C69.8606 26.4054 68.8191 26.4842 67.6387 26.4842C65.4169 26.4842 63.5719 26.0263 62.1039 25.1104C60.6457 24.1945 59.5546 22.9043 58.8305 21.24C58.1164 19.5756 57.7593 17.6256 57.7593 15.3901C57.7593 13.7552 57.9874 12.2583 58.4437 10.8992C58.9 9.54013 59.5645 8.36818 60.4374 7.38335C61.3103 6.38866 62.3866 5.62542 63.6661 5.0936C64.9556 4.55195 66.4286 4.28112 68.0851 4.28112C69.1762 4.28112 70.2475 4.40422 71.2989 4.65043C72.3603 4.88679 73.3423 5.22656 74.2449 5.66973L72.9951 8.59469C72.2412 8.24015 71.4527 7.93485 70.6294 7.6788C69.8061 7.42274 68.953 7.29471 68.0702 7.29471Z" fill="white"/>
<path d="M81.2677 26.1888H77.7563V3.20272H81.2677V26.1888Z" fill="white"/>
<path d="M100.848 17.9752C100.848 19.3343 100.67 20.5407 100.312 21.5945C99.9554 22.6483 99.4346 23.5396 98.7502 24.2683C98.0658 24.9873 97.2425 25.5388 96.2803 25.9229C95.3182 26.2971 94.232 26.4842 93.0219 26.4842C91.8911 26.4842 90.8545 26.2971 89.9122 25.9229C88.9699 25.5388 88.1516 24.9873 87.4572 24.2683C86.7728 23.5396 86.2421 22.6483 85.8652 21.5945C85.4883 20.5407 85.2998 19.3343 85.2998 17.9752C85.2998 16.173 85.6123 14.6465 86.2372 13.3958C86.872 12.1352 87.7746 11.175 88.9451 10.5151C90.1156 9.85528 91.5092 9.52536 93.126 9.52536C94.6437 9.52536 95.9827 9.85528 97.1433 10.5151C98.3038 11.175 99.2114 12.1352 99.8661 13.3958C100.521 14.6564 100.848 16.1828 100.848 17.9752ZM88.9005 17.9752C88.9005 19.1669 89.0443 20.1862 89.3319 21.0332C89.6295 21.8801 90.0858 22.5301 90.7008 22.9831C91.3158 23.4263 92.1093 23.6479 93.0814 23.6479C94.0535 23.6479 94.847 23.4263 95.462 22.9831C96.077 22.5301 96.5283 21.8801 96.816 21.0332C97.1036 20.1862 97.2474 19.1669 97.2474 17.9752C97.2474 16.7836 97.1036 15.7741 96.816 14.9469C96.5283 14.1098 96.077 13.4746 95.462 13.0412C94.847 12.598 94.0485 12.3765 93.0665 12.3765C91.6183 12.3765 90.5619 12.859 89.8973 13.8242C89.2328 14.7893 88.9005 16.173 88.9005 17.9752Z" fill="white"/>
<path d="M119.223 9.83559V26.1888H116.471L115.995 23.9877H115.801C115.454 24.549 115.013 25.0168 114.477 25.3911C113.941 25.7554 113.346 26.0263 112.692 26.2035C112.037 26.3907 111.348 26.4842 110.623 26.4842C109.384 26.4842 108.322 26.2774 107.439 25.8638C106.566 25.4403 105.897 24.7903 105.431 23.9138C104.965 23.0373 104.731 21.9047 104.731 20.5161V9.83559H108.243V19.8661C108.243 21.1366 108.501 22.0869 109.017 22.7172C109.542 23.3475 110.356 23.6627 111.457 23.6627C112.518 23.6627 113.361 23.446 113.986 23.0127C114.611 22.5793 115.052 21.9392 115.31 21.0922C115.578 20.2453 115.712 19.2063 115.712 17.9752V9.83559H119.223Z" fill="white"/>
<path d="M129.772 26.4842C127.808 26.4842 126.231 25.7751 125.041 24.357C123.861 22.929 123.27 20.8263 123.27 18.0491C123.27 15.2423 123.87 13.12 125.071 11.6822C126.281 10.2443 127.873 9.52536 129.847 9.52536C130.68 9.52536 131.409 9.63862 132.034 9.86513C132.659 10.0818 133.194 10.3772 133.641 10.7515C134.097 11.1257 134.484 11.5443 134.801 12.0071H134.965C134.915 11.7018 134.856 11.2636 134.786 10.6924C134.727 10.1113 134.697 9.5746 134.697 9.08219V3.20272H138.209V26.1888H135.471L134.846 23.9581H134.697C134.4 24.4308 134.023 24.8592 133.566 25.2433C133.12 25.6176 132.584 25.9179 131.96 26.1445C131.345 26.371 130.615 26.4842 129.772 26.4842ZM130.754 23.6627C132.252 23.6627 133.309 23.2343 133.924 22.3775C134.539 21.5207 134.856 20.2354 134.876 18.5218V18.0639C134.876 16.2321 134.578 14.8287 133.983 13.8537C133.388 12.8689 132.302 12.3765 130.725 12.3765C129.465 12.3765 128.503 12.8836 127.838 13.898C127.183 14.9026 126.856 16.306 126.856 18.1082C126.856 19.9104 127.183 21.2892 127.838 22.2445C128.503 23.1899 129.475 23.6627 130.754 23.6627Z" fill="white"/>
<path d="M164.053 20.3093C164.053 21.5896 163.736 22.6926 163.101 23.6184C162.476 24.5441 161.573 25.2532 160.393 25.7456C159.222 26.238 157.824 26.4842 156.197 26.4842C155.403 26.4842 154.645 26.4399 153.921 26.3513C153.196 26.2626 152.512 26.1346 151.867 25.9672C151.232 25.7899 150.652 25.5782 150.126 25.332V21.9934C151.009 22.3775 151.996 22.7271 153.087 23.0422C154.178 23.3475 155.289 23.5002 156.42 23.5002C157.343 23.5002 158.106 23.382 158.712 23.1456C159.326 22.8994 159.783 22.5547 160.08 22.1116C160.378 21.6585 160.527 21.1316 160.527 20.5309C160.527 19.8907 160.353 19.3491 160.006 18.9059C159.659 18.4627 159.133 18.059 158.429 17.6946C157.734 17.3203 156.862 16.9215 155.81 16.498C155.096 16.2124 154.412 15.8874 153.757 15.523C153.112 15.1586 152.537 14.7302 152.031 14.2378C151.525 13.7454 151.123 13.1643 150.826 12.4946C150.538 11.8151 150.394 11.0174 150.394 10.1015C150.394 8.8803 150.687 7.83637 151.272 6.96971C151.867 6.10306 152.7 5.4383 153.772 4.97542C154.853 4.51255 156.113 4.28112 157.551 4.28112C158.692 4.28112 159.763 4.3993 160.765 4.63566C161.777 4.87202 162.768 5.20686 163.741 5.64019L162.61 8.49129C161.717 8.1269 160.849 7.83637 160.006 7.61971C159.173 7.40304 158.32 7.29471 157.447 7.29471C156.693 7.29471 156.053 7.40797 155.527 7.63448C155.002 7.86099 154.6 8.18106 154.322 8.59469C154.054 8.99848 153.921 9.48104 153.921 10.0424C153.921 10.6727 154.074 11.2045 154.382 11.6378C154.699 12.0613 155.185 12.4503 155.84 12.8049C156.504 13.1594 157.358 13.5533 158.399 13.9867C159.599 14.4791 160.616 14.9961 161.449 15.5378C162.292 16.0794 162.937 16.7294 163.383 17.4878C163.83 18.2362 164.053 19.1767 164.053 20.3093Z" fill="white"/>
<path d="M171.403 26.1888H167.892V3.20272H171.403V26.1888Z" fill="white"/>
<path d="M179.899 9.83559V26.1888H176.402V9.83559H179.899ZM178.173 3.57203C178.709 3.57203 179.17 3.71484 179.557 4.00044C179.953 4.28604 180.152 4.77846 180.152 5.47769C180.152 6.16707 179.953 6.65949 179.557 6.95494C179.17 7.24054 178.709 7.38335 178.173 7.38335C177.617 7.38335 177.146 7.24054 176.759 6.95494C176.382 6.65949 176.194 6.16707 176.194 5.47769C176.194 4.77846 176.382 4.28604 176.759 4.00044C177.146 3.71484 177.617 3.57203 178.173 3.57203Z" fill="white"/>
<path d="M191.549 26.4842C189.992 26.4842 188.643 26.1838 187.502 25.5831C186.361 24.9823 185.483 24.0615 184.868 22.8206C184.253 21.5797 183.946 20.004 183.946 18.0934C183.946 16.1041 184.283 14.4791 184.958 13.2185C185.632 11.9579 186.565 11.0272 187.755 10.4265C188.955 9.82574 190.329 9.52536 191.876 9.52536C192.858 9.52536 193.746 9.62385 194.54 9.82081C195.343 10.0079 196.022 10.2394 196.578 10.5151L195.536 13.2924C194.931 13.0461 194.311 12.8393 193.677 12.6719C193.042 12.5045 192.432 12.4208 191.846 12.4208C190.884 12.4208 190.081 12.6325 189.436 13.056C188.801 13.4795 188.325 14.1098 188.008 14.9469C187.7 15.784 187.546 16.823 187.546 18.0639C187.546 19.2654 187.705 20.2798 188.023 21.107C188.34 21.9244 188.811 22.5449 189.436 22.9684C190.061 23.382 190.83 23.5888 191.742 23.5888C192.645 23.5888 193.453 23.4805 194.168 23.2638C194.882 23.0471 195.556 22.7665 196.191 22.4218V25.4354C195.566 25.7899 194.897 26.0509 194.182 26.2183C193.468 26.3956 192.59 26.4842 191.549 26.4842Z" fill="white"/>
<path d="M206.621 9.52536C208.089 9.52536 209.349 9.82574 210.4 10.4265C211.452 11.0272 212.26 11.8791 212.825 12.9821C213.391 14.0851 213.674 15.4048 213.674 16.9412V18.8025H202.678C202.718 20.3881 203.144 21.6093 203.958 22.4661C204.781 23.3229 205.932 23.7513 207.41 23.7513C208.461 23.7513 209.403 23.6528 210.237 23.4559C211.08 23.249 211.948 22.9487 212.84 22.5547V25.3763C212.017 25.7604 211.179 26.041 210.326 26.2183C209.473 26.3956 208.451 26.4842 207.261 26.4842C205.644 26.4842 204.221 26.174 202.991 25.5536C201.771 24.9233 200.813 23.9877 200.119 22.7468C199.435 21.5059 199.092 19.9646 199.092 18.123C199.092 16.2912 199.405 14.7351 200.03 13.4549C200.655 12.1746 201.533 11.1996 202.663 10.5299C203.794 9.86021 205.113 9.52536 206.621 9.52536ZM206.621 12.1401C205.52 12.1401 204.627 12.4946 203.943 13.2037C203.268 13.9128 202.872 14.9518 202.753 16.3207H210.251C210.242 15.5033 210.103 14.7795 209.835 14.1492C209.577 13.5189 209.18 13.0265 208.645 12.6719C208.119 12.3174 207.444 12.1401 206.621 12.1401Z" fill="white"/>
<path d="M225.963 9.52536C226.241 9.52536 226.544 9.54013 226.871 9.56968C227.198 9.59923 227.481 9.63862 227.719 9.68786L227.392 12.9378C227.183 12.8787 226.926 12.8344 226.618 12.8049C226.32 12.7753 226.053 12.7605 225.815 12.7605C225.19 12.7605 224.595 12.864 224.029 13.0708C223.464 13.2677 222.963 13.573 222.526 13.9867C222.09 14.3904 221.748 14.8976 221.5 15.5082C221.252 16.1188 221.128 16.8279 221.128 17.6355V26.1888H217.616V9.83559H220.354L220.83 12.7162H220.994C221.321 12.1352 221.728 11.6034 222.214 11.1208C222.7 10.6382 223.255 10.2541 223.88 9.96854C224.515 9.67309 225.21 9.52536 225.963 9.52536Z" fill="white"/>
<path d="M237.599 26.1888L242.211 4.59134H246.898C249.616 4.59134 251.743 5.30534 253.281 6.73335C254.818 8.16137 255.587 10.3477 255.587 13.2924C255.587 14.6711 255.408 16.0007 255.051 17.2809C254.704 18.5612 254.178 19.743 253.474 20.8263C252.78 21.9097 251.902 22.8502 250.841 23.6479C249.789 24.4456 248.559 25.071 247.151 25.524C245.742 25.9672 244.155 26.1888 242.39 26.1888H237.599ZM239.414 24.8445H242.464C243.982 24.8445 245.35 24.6475 246.57 24.2536C247.791 23.8596 248.862 23.3032 249.784 22.5843C250.717 21.8653 251.49 21.0233 252.105 20.0582C252.73 19.093 253.201 18.0343 253.519 16.8821C253.836 15.7298 253.995 14.5283 253.995 13.2776C253.995 10.7367 253.34 8.8803 252.031 7.70834C250.732 6.52654 248.916 5.93564 246.585 5.93564H243.461L239.414 24.8445Z" fill="#B366FF"/>
<path d="M264.023 26.4547C262.773 26.4547 261.722 26.1986 260.869 25.6865C260.016 25.1744 259.371 24.4555 258.935 23.5297C258.508 22.604 258.295 21.5305 258.295 20.3093C258.295 19.1374 258.419 18.0294 258.667 16.9855C258.925 15.9416 259.292 14.9863 259.768 14.1196C260.254 13.2431 260.834 12.4897 261.509 11.8594C262.193 11.2193 262.962 10.7269 263.815 10.3822C264.678 10.0276 265.605 9.85036 266.597 9.85036C267.827 9.85036 268.864 10.1113 269.707 10.6333C270.55 11.1553 271.19 11.8791 271.626 12.8049C272.073 13.7208 272.296 14.7844 272.296 15.9957C272.296 17.079 272.177 18.1328 271.939 19.157C271.711 20.1813 271.368 21.1366 270.912 22.0229C270.456 22.9093 269.89 23.6824 269.216 24.3422C268.551 25.002 267.783 25.5191 266.91 25.8933C266.047 26.2676 265.085 26.4547 264.023 26.4547ZM264.157 25.1695C264.951 25.1695 265.685 25.0217 266.359 24.7263C267.044 24.421 267.654 23.9926 268.189 23.4411C268.735 22.8896 269.196 22.2297 269.573 21.4616C269.96 20.6934 270.252 19.8366 270.451 18.8911C270.649 17.9457 270.748 16.9362 270.748 15.8628C270.748 14.9961 270.6 14.2083 270.302 13.4992C270.004 12.7802 269.548 12.209 268.933 11.7856C268.328 11.3621 267.545 11.1503 266.582 11.1503C265.789 11.1503 265.05 11.2931 264.365 11.5787C263.681 11.8643 263.056 12.278 262.491 12.8196C261.935 13.3613 261.459 14.0113 261.062 14.7696C260.666 15.5279 260.358 16.3798 260.14 17.3253C259.932 18.2608 259.827 19.2703 259.827 20.3536C259.827 21.8407 260.189 23.0176 260.914 23.8843C261.648 24.7411 262.729 25.1695 264.157 25.1695Z" fill="#B366FF"/>
<path d="M281.416 26.4842C280.177 26.4842 279.115 26.2331 278.232 25.7308C277.35 25.2187 276.67 24.5047 276.194 23.5888C275.728 22.6729 275.495 21.5994 275.495 20.3684C275.495 19.2457 275.614 18.1624 275.852 17.1184C276.1 16.0745 276.462 15.1094 276.938 14.223C277.414 13.3367 277.994 12.5685 278.679 11.9185C279.373 11.2587 280.167 10.7466 281.059 10.3822C281.962 10.0079 282.949 9.82081 284.02 9.82081C284.715 9.82081 285.399 9.88483 286.074 10.0129C286.758 10.1409 287.358 10.3231 287.874 10.5594L287.442 11.8742C286.976 11.6477 286.436 11.4704 285.821 11.3424C285.215 11.2045 284.615 11.1356 284.02 11.1356C282.959 11.1356 281.997 11.3769 281.134 11.8594C280.271 12.3321 279.532 12.992 278.917 13.8389C278.312 14.6859 277.846 15.6658 277.518 16.7787C277.191 17.8817 277.027 19.0635 277.027 20.3241C277.027 21.2597 277.196 22.0968 277.533 22.8354C277.88 23.5642 278.391 24.1403 279.066 24.5638C279.74 24.9774 280.563 25.1842 281.535 25.1842C282.26 25.1842 282.934 25.1005 283.559 24.9331C284.184 24.7558 284.809 24.5244 285.434 24.2388V25.5831C284.918 25.8392 284.328 26.0509 283.663 26.2183C282.999 26.3956 282.25 26.4842 281.416 26.4842Z" fill="#B366FF"/>
<path d="M292.59 26.4842C291.559 26.4842 290.656 26.371 289.882 26.1445C289.119 25.9179 288.489 25.6717 287.993 25.4058V23.9138C288.558 24.2486 289.243 24.549 290.046 24.8149C290.85 25.071 291.693 25.199 292.576 25.199C293.577 25.199 294.391 25.0611 295.016 24.7854C295.641 24.5096 296.102 24.1305 296.399 23.6479C296.707 23.1555 296.861 22.5892 296.861 21.9491C296.861 21.3778 296.727 20.9002 296.459 20.5161C296.191 20.132 295.814 19.7873 295.328 19.482C294.852 19.1669 294.301 18.837 293.677 18.4923C292.972 18.0984 292.342 17.7093 291.787 17.3253C291.231 16.9412 290.795 16.5029 290.478 16.0105C290.16 15.5082 290.001 14.8976 290.001 14.1787C290.001 13.2136 290.235 12.4109 290.701 11.7708C291.177 11.1306 291.822 10.6481 292.635 10.3231C293.448 9.98823 294.366 9.82081 295.388 9.82081C296.35 9.82081 297.218 9.9193 297.991 10.1163C298.765 10.3132 299.435 10.5447 300 10.8106L299.509 12.081C298.993 11.825 298.378 11.6034 297.664 11.4162C296.96 11.2291 296.196 11.1356 295.373 11.1356C294.252 11.1356 293.324 11.3769 292.59 11.8594C291.866 12.342 291.504 13.0855 291.504 14.0901C291.504 14.5923 291.628 15.0257 291.876 15.3901C292.134 15.7446 292.496 16.0696 292.962 16.365C293.438 16.6605 293.994 16.9806 294.629 17.3253C295.293 17.6995 295.913 18.0787 296.489 18.4627C297.064 18.8468 297.525 19.3048 297.872 19.8366C298.229 20.3585 298.408 21.0282 298.408 21.8456C298.408 22.7615 298.19 23.5691 297.753 24.2683C297.327 24.9676 296.677 25.5142 295.804 25.9081C294.941 26.2922 293.87 26.4842 292.59 26.4842Z" fill="#B366FF"/>
</svg>
